<?xml version="1.0" standalone="no"?>
<!DOCTYPE svg PUBLIC "-//W3C//DTD SVG 20010904//EN"
 "http://www.w3.org/TR/2001/REC-SVG-20010904/DTD/svg10.dtd">
<svg version="1.0" xmlns="http://www.w3.org/2000/svg"
 width="500.000000pt" height="500.000000pt" viewBox="0 0 500.000000 500.000000"
 preserveAspectRatio="xMidYMid meet">

<g transform="translate(0.000000,500.000000) scale(0.100000,-0.100000)"
fill="#000000" stroke="none">
<path d="M1240 3555 c132 -137 117 -130 -40 20 -94 89 -94 89 20 -29 132 -138
121 -136 -25 3 l-100 96 108 -111 c59 -61 107 -115 107 -120 0 -5 -42 32 -92
81 l-92 90 82 -86 c45 -48 82 -90 82 -95 0 -5 -42 32 -92 81 -86 83 -88 84
-22 15 105 -112 109 -126 8 -30 -65 62 -74 69 -34 25 91 -99 99 -114 20 -40
-41 39 -57 51 -36 28 22 -24 35 -46 31 -53 -4 -7 5 -25 21 -43 16 -18 -5 0
-46 38 -79 74 -71 58 20 -40 53 -58 53 -58 -18 10 -39 38 -72 65 -72 60 0 -5
33 -43 73 -85 l72 -75 -70 66 c-110 102 -119 102 -20 -2 80 -83 82 -87 20 -29
-121 113 -134 118 -35 15 69 -73 77 -84 30 -40 -128 119 -143 128 -50 31 l95
-100 -110 99 -110 99 100 -104 c96 -101 79 -88 -70 50 -42 39 -24 17 45 -55
110 -115 100 -110 -40 20 -52 48 -47 41 25 -35 93 -97 85 -97 -20 0 -42 38
-36 30 21 -29 l81 -83 64 -5 c53 -4 75 -1 117 17 57 24 116 83 138 136 15 37
17 151 2 160 -4 3 -6 10 -2 15 3 6 -1 18 -9 27 -9 9 -15 21 -15 26 2 17 -54
77 -67 72 -8 -3 -19 2 -26 10 -6 8 -14 12 -17 9 -3 -3 25 -38 64 -78 l69 -72
-65 60 c-111 104 -119 103 -20 0 79 -83 83 -89 25 -35 -135 126 -149 134 -45
25 64 -67 80 -87 40 -50 -137 127 -152 136 -55 36 l100 -105 -110 99 -110 99
100 -104 c103 -108 76 -87 -80 60 -74 70 -68 62 35 -45z m130 50 c19 -19 32
-35 29 -35 -3 0 -20 16 -39 35 -19 19 -32 35 -29 35 3 0 20 -16 39 -35z m-175
-195 c10 -11 16 -20 13 -20 -3 0 -13 9 -23 20 -10 11 -16 20 -13 20 3 0 13 -9
23 -20z"/>
<path d="M1120 3465 c19 -19 36 -35 39 -35 3 0 -10 16 -29 35 -19 19 -36 35
-39 35 -3 0 10 -16 29 -35z"/>
<path d="M930 3466 c0 -2 8 -10 18 -17 15 -13 16 -12 3 4 -13 16 -21 21 -21
13z"/>
<path d="M1005 3270 c21 -22 41 -40 44 -40 3 0 -13 18 -34 40 -21 22 -41 40
-44 40 -3 0 13 -18 34 -40z"/>
<path d="M1394 3085 c-51 -21 -64 -49 -64 -136 0 -61 4 -81 20 -102 20 -25 73
-50 84 -40 9 9 7 281 -2 287 -4 2 -21 -2 -38 -9z"/>
<path d="M1624 3087 c-2 -7 -3 -114 -2 -237 l3 -225 53 -3 52 -3 0 240 0 241
-50 0 c-32 0 -52 -5 -56 -13z"/>
<path d="M1767 3094 c-12 -12 -8 -53 8 -84 17 -33 43 -50 75 -50 19 0 21 5 18
68 l-3 67 -45 3 c-25 2 -49 0 -53 -4z"/>
<path d="M2220 2860 l0 -241 53 3 52 3 0 235 0 235 -52 3 -53 3 0 -241z"/>
<path d="M2357 3094 c-11 -11 -8 -53 4 -77 16 -31 50 -57 77 -57 22 0 23 3 20
68 l-3 67 -45 3 c-25 2 -49 0 -53 -4z"/>
<path d="M2517 3094 c-4 -4 -7 -112 -7 -241 l0 -233 55 0 55 0 -2 238 -3 237
-45 3 c-25 2 -49 0 -53 -4z"/>
<path d="M2654 3087 c-2 -7 -3 -114 -2 -237 l3 -225 53 -3 52 -3 0 204 c0 189
-1 206 -20 230 -24 31 -79 52 -86 34z"/>
<path d="M2880 3082 c-58 -29 -70 -66 -69 -222 0 -162 10 -197 61 -225 20 -11
39 -17 43 -14 3 3 4 112 3 242 l-3 237 -35 -18z"/>
<path d="M3120 2860 l0 -241 53 3 52 3 0 235 0 235 -52 3 -53 3 0 -241z"/>
<path d="M3417 3094 c-14 -15 -8 -195 9 -229 13 -28 63 -65 88 -65 4 0 5 66 4
148 l-3 147 -45 3 c-25 2 -49 0 -53 -4z"/>
<path d="M3560 2860 c0 -163 3 -240 11 -240 18 0 53 21 71 44 15 18 18 47 18
229 l0 207 -50 0 -50 0 0 -240z"/>
<path d="M1470 3010 l0 -80 55 0 55 0 0 34 c0 67 -41 126 -87 126 -22 0 -23
-3 -23 -80z"/>
<path d="M1944 3059 l-29 -30 -3 -147 c-4 -173 5 -214 51 -242 58 -36 57 -41
57 215 l0 235 -23 0 c-13 0 -36 -14 -53 -31z"/>
<path d="M2060 2985 l0 -105 56 0 57 0 -5 75 c-4 66 -9 80 -33 105 -16 17 -39
30 -52 30 -23 0 -23 -2 -23 -105z"/>
<path d="M2960 2855 c0 -157 3 -235 10 -235 28 0 73 35 86 65 19 47 20 292 0
339 -15 36 -50 66 -78 66 -17 0 -18 -16 -18 -235z"/>
<path d="M3260 2980 c0 -102 1 -110 19 -110 29 0 79 46 86 80 14 64 -30 140
-81 140 -24 0 -24 -1 -24 -110z"/>
<path d="M1470 2765 c0 -95 4 -145 10 -145 26 0 71 33 86 62 12 23 15 50 12
101 -3 63 -7 72 -36 98 -18 16 -41 29 -52 29 -19 0 -20 -7 -20 -145z"/>
<path d="M1760 2900 c0 -21 30 -70 49 -80 11 -5 29 -10 40 -10 18 0 21 6 21
50 l0 50 -55 0 c-32 0 -55 -4 -55 -10z"/>
<path d="M2350 2899 c0 -36 51 -88 88 -89 20 0 22 5 22 50 l0 50 -55 0 c-32 0
-55 -4 -55 -11z"/>
<path d="M3260 2735 l0 -115 55 0 55 0 0 70 c0 44 -6 82 -15 100 -14 28 -60
60 -85 60 -6 0 -10 -41 -10 -115z"/>
<path d="M2060 2731 c0 -122 2 -125 57 -91 38 23 56 73 51 145 l-3 50 -52 3
-53 3 0 -110z"/>
<path d="M1330 2735 c0 -25 7 -56 15 -69 18 -27 68 -51 84 -41 6 3 11 39 11
81 l0 74 -55 0 -55 0 0 -45z"/>
<path d="M1794 2726 c-26 -26 -34 -42 -34 -70 l0 -36 55 0 55 0 0 70 c0 64 -2
70 -21 70 -12 0 -36 -15 -55 -34z"/>
<path d="M2390 2733 c-23 -20 -33 -40 -37 -70 l-6 -43 57 0 56 0 0 70 c0 63
-2 70 -20 70 -11 0 -34 -12 -50 -27z"/>
<path d="M1357 2574 c-4 -4 -7 -160 -7 -346 l0 -339 78 3 77 3 0 340 0 340
-70 3 c-39 1 -74 0 -78 -4z"/>
<path d="M1780 2418 c0 -143 2 -167 19 -192 25 -37 69 -66 104 -66 l27 0 0
210 0 210 -75 0 -75 0 0 -162z"/>
<path d="M1987 2574 c-4 -4 -7 -160 -7 -347 l0 -339 33 6 c38 7 73 31 101 70
20 26 21 40 21 319 l0 292 -70 3 c-39 1 -74 0 -78 -4z"/>
<path d="M2227 2574 c-4 -4 -7 -160 -7 -346 l0 -339 78 3 77 3 0 340 0 340
-70 3 c-39 1 -74 0 -78 -4z"/>
<path d="M2427 2574 c-4 -4 -7 -76 -7 -161 0 -176 2 -180 76 -145 106 52 114
211 14 283 -29 21 -73 33 -83 23z"/>
<path d="M2655 2567 c-3 -6 -4 -161 -3 -342 l3 -330 78 -3 77 -3 0 346 0 345
-75 0 c-52 0 -77 -4 -80 -13z"/>
<path d="M2973 2560 c-79 -35 -83 -50 -83 -325 0 -220 2 -243 20 -272 23 -38
55 -60 98 -69 l32 -6 0 346 c0 270 -3 346 -12 346 -7 0 -32 -9 -55 -20z"/>
<path d="M3097 2573 c-4 -3 -7 -76 -7 -160 l0 -154 78 3 77 3 3 90 c2 77 -1
96 -20 135 -22 42 -56 70 -104 84 -11 3 -23 3 -27 -1z"/>
<path d="M3390 2558 c-70 -35 -92 -88 -88 -203 3 -67 9 -99 23 -123 22 -37 67
-68 105 -74 l25 -3 3 213 c2 169 0 212 -11 212 -7 0 -33 -10 -57 -22z"/>
<path d="M3512 2464 l3 -119 75 0 75 0 -1 61 c-1 94 -42 149 -127 169 l-28 7
3 -118z"/>
<path d="M1159 2418 c-91 -124 -128 -310 -98 -486 10 -58 13 -63 33 -57 11 4
40 11 64 17 l42 10 0 279 c0 153 -2 279 -5 279 -3 0 -19 -19 -36 -42z"/>
<path d="M3510 2099 l0 -211 33 6 c46 9 79 36 105 87 20 38 23 55 20 130 -3
62 -9 95 -24 120 -24 40 -78 79 -110 79 l-24 0 0 -211z"/>
<path d="M2425 2208 c-3 -8 -4 -81 -3 -163 l3 -150 78 -3 77 -3 0 109 c0 97
-3 113 -22 142 -40 58 -121 100 -133 68z"/>
<path d="M3097 2204 c-4 -4 -7 -76 -7 -161 l0 -153 24 0 c29 0 82 35 110 73
18 25 21 43 21 135 l0 107 -70 3 c-39 1 -74 0 -78 -4z"/>
<path d="M1626 2181 c-57 -38 -71 -75 -71 -186 l0 -100 78 -3 77 -3 0 156 0
155 -27 0 c-16 0 -41 -9 -57 -19z"/>
<path d="M3303 2054 c3 -43 12 -76 24 -93 27 -36 81 -71 109 -71 24 0 24 1 24
115 l0 115 -81 0 -82 0 6 -66z"/>
<path d="M3690 1841 c-78 -24 -162 -104 -180 -171 -12 -44 -11 -128 2 -136 4
-3 6 -10 2 -15 -3 -5 0 -17 7 -25 7 -9 14 -23 15 -32 2 -8 20 -32 40 -51 l38
-36 -39 50 -38 50 69 -65 c65 -62 55 -47 -46 65 -25 28 0 7 55 -45 94 -90 86
-77 -45 65 -30 33 -3 11 60 -50 109 -104 101 -93 -35 55 -48 52 -41 47 35 -25
97 -92 92 -80 -15 35 -47 52 -40 46 35 -25 97 -92 92 -80 -15 35 -51 56 -47
53 29 -20 97 -92 98 -83 2 20 -48 51 -51 56 -16 25 91 -82 103 -88 40 -20 -67
71 -53 66 35 -15 39 -35 36 -31 -14 22 -57 59 -61 67 -40 66 14 -1 48 -24 84
-57 l60 -56 -53 55 c-75 80 -64 86 15 10 58 -55 60 -57 15 -10 -72 77 -65 87
10 15 51 -49 54 -51 15 -10 -63 68 -60 82 5 20 l53 -50 -41 45 c-72 80 -70 87
6 15 l74 -70 -62 67 c-34 36 -62 70 -62 74 0 5 33 -23 72 -61 71 -68 71 -68
18 -10 -96 104 -107 123 -30 50 l74 -70 -69 80 -69 80 74 -70 c70 -66 64 -56
-35 55 -22 25 -4 11 40 -30 82 -77 73 -61 -25 45 -46 50 -41 47 30 -20 90 -85
84 -71 -15 35 -51 56 -47 53 30 -20 96 -92 90 -77 -15 35 -63 68 -64 69 -10
20 92 -85 108 -93 40 -20 -67 71 -53 66 35 -15 34 -30 27 -21 -19 27 -38 40
-72 71 -75 71 -3 -1 -19 4 -34 10 -31 13 -79 14 -117 3z"/>
<path d="M3930 1765 c19 -19 36 -35 39 -35 3 0 -10 16 -29 35 -19 19 -36 35
-39 35 -3 0 10 -16 29 -35z"/>
<path d="M1474 1549 c-8 -36 -8 -52 0 -55 103 -39 498 -63 743 -46 245 17 374
50 483 122 l45 30 -631 0 -630 0 -10 -51z"/>
<path d="M3730 1535 c30 -30 57 -55 59 -55 3 0 -19 25 -49 55 -30 30 -57 55
-59 55 -3 0 19 -25 49 -55z"/>
</g>
</svg>
